<svg xmlns="http://www.w3.org/2000/svg" viewBox="0 0 63 44" fill="none" aria-hidden="true"><path d="M26.223 4.797a10.973 10.973 0 017.985-3.413c4.166 0 7.777 2.306 9.72 5.742a13.664 13.664 0 015.486-1.153C56.913 5.973 63 12.084 63 19.625c0 7.541-6.087 13.653-13.586 13.653-.926 0-1.805-.093-2.685-.277a9.936 9.936 0 01-8.656 5.074c-1.55 0-3.032-.37-4.351-.992-1.736 4.036-5.74 6.872-10.415 6.872a11.31 11.31 0 01-10.624-7.38c-.694.139-1.412.231-2.152.231C4.698 36.76 0 32.032 0 26.175c0-3.92 2.106-7.334 5.254-9.179a12.005 12.005 0 01-.995-4.843C4.259 5.443 9.72 0 16.479 0c3.981 0 7.499 1.868 9.744 4.797z" fill="#009DDC"></path><path d="M9.12 22.785c-.047.092.023.115.023.138.115.092.231.139.37.208.648.346 1.25.438 1.875.438 1.296 0 2.106-.692 2.106-1.776v-.023c0-1.015-.903-1.384-1.76-1.66l-.115-.046c-.648-.208-1.204-.392-1.204-.808v-.023c0-.369.325-.622.834-.622.555 0 1.226.184 1.643.415 0 0 .116.069.162-.046.023-.07.232-.646.255-.715.023-.07-.023-.116-.07-.139-.486-.3-1.157-.484-1.851-.484h-.14c-1.18 0-2.013.715-2.013 1.73v.023c0 1.084.903 1.43 1.76 1.66l.138.046c.625.185 1.157.346 1.157.784v.023c0 .392-.347.692-.902.692-.209 0-.903 0-1.667-.484-.092-.046-.139-.092-.208-.138-.046-.023-.139-.07-.162.069l-.232.738zM28.051 22.785c-.046.092.023.115.023.138.116.092.232.139.37.208.649.346 1.25.438 1.875.438 1.296 0 2.106-.692 2.106-1.776v-.023c0-1.015-.902-1.384-1.759-1.66l-.115-.046c-.648-.208-1.204-.392-1.204-.808v-.023c0-.369.324-.622.833-.622.556 0 1.227.184 1.644.415 0 0 .115.069.162-.046.023-.07.231-.646.254-.715.023-.07-.023-.116-.07-.139-.485-.3-1.156-.484-1.85-.484h-.14c-1.18 0-2.013.715-2.013 1.73v.023c0 1.084.902 1.43 1.759 1.66l.139.046c.625.185 1.157.346 1.157.784v.023c0 .392-.347.692-.903.692-.208 0-.902 0-1.666-.484-.093-.046-.139-.092-.208-.138-.024-.023-.14-.047-.163.069l-.23.738zM42.031 19.464a2.921 2.921 0 00-.486-.922c-.232-.254-.51-.485-.833-.623-.324-.161-.718-.23-1.158-.23-.44 0-.833.069-1.157.23a2.812 2.812 0 00-.833.623 2.519 2.519 0 00-.486.922 3.658 3.658 0 00-.162 1.153c0 .415.046.807.162 1.153s.278.67.486.923c.231.253.51.484.833.622.324.139.718.231 1.157.231.44 0 .834-.07 1.158-.23.324-.139.601-.37.833-.623a2.52 2.52 0 00.486-.923c.116-.346.162-.738.162-1.153 0-.415-.046-.784-.162-1.153zm-1.088 1.153c0 .623-.115 1.107-.347 1.453-.231.346-.579.508-1.041.508-.486 0-.81-.162-1.042-.508-.231-.346-.347-.83-.347-1.453 0-.622.116-1.107.347-1.453.231-.346.556-.507 1.041-.507.487 0 .834.162 1.042.507.232.346.347.83.347 1.453z" fill="#fff"></path><path fill-rule="evenodd" clip-rule="evenodd" d="M50.896 22.44c-.046-.116-.139-.07-.139-.07-.162.07-.324.115-.51.138-.184.023-.37.047-.6.047-.533 0-.927-.162-1.228-.462-.3-.3-.462-.807-.462-1.476 0-.6.138-1.06.416-1.407.255-.345.671-.53 1.204-.53.44 0 .787.046 1.134.162 0 0 .092.046.116-.07.092-.253.162-.438.254-.738.023-.092-.046-.115-.07-.115a6.273 6.273 0 00-.717-.184c-.231-.046-.509-.046-.81-.046-.463 0-.856.069-1.203.23a2.746 2.746 0 00-.88.623 2.609 2.609 0 00-.532.922 3.648 3.648 0 00-.185 1.153c0 .9.231 1.615.717 2.145s1.204.807 2.13.807c.555 0 1.11-.115 1.527-.277 0 0 .07-.046.046-.138l-.208-.715zM56.405 19.256a2.437 2.437 0 00-.463-.853c-.231-.254-.463-.438-.694-.53a2.468 2.468 0 00-1.042-.208c-.463 0-.88.07-1.203.23a2.133 2.133 0 00-.834.646 2.305 2.305 0 00-.485.946 3.757 3.757 0 00-.162 1.153c0 .415.046.807.162 1.153.115.346.277.669.532.922.231.254.555.462.926.6.37.138.81.208 1.319.208 1.065 0 1.62-.231 1.828-.37.047-.022.07-.069.023-.184l-.231-.669c-.046-.092-.139-.069-.139-.069-.255.092-.625.277-1.504.277-.556 0-.995-.162-1.25-.438-.278-.277-.394-.669-.417-1.2h3.657s.093 0 .116-.092c-.023.023.093-.691-.139-1.522zm-3.634.761c.047-.346.14-.622.301-.853.232-.346.556-.53 1.042-.53s.787.184 1.018.53c.139.23.208.53.232.853H52.77zM27.173 19.256a2.437 2.437 0 00-.463-.853c-.232-.254-.463-.438-.695-.53a2.468 2.468 0 00-1.041-.208c-.463 0-.88.07-1.204.23a2.133 2.133 0 00-.833.646 2.305 2.305 0 00-.486.946 3.757 3.757 0 00-.162 1.153c0 .415.046.807.162 1.153s.278.669.532.922c.232.254.556.462.926.6.37.138.81.208 1.32.208 1.064 0 1.62-.231 1.828-.37.046-.022.07-.069.023-.184l-.231-.669c-.047-.092-.14-.069-.14-.069-.254.092-.624.277-1.504.277-.555 0-.995-.162-1.25-.438-.277-.277-.393-.669-.416-1.2h3.657s.092 0 .115-.092c-.023.023.093-.691-.138-1.522zm-3.634.761c.046-.346.139-.622.3-.853.232-.346.556-.53 1.042-.53s.787.184 1.019.53c.139.23.208.53.231.853H23.54z" fill="#fff"></path><path d="M17.105 19.856c-.139 0-.347-.023-.579-.023-.323 0-.624.046-.902.115a2.29 2.29 0 00-.764.346 1.881 1.881 0 00-.532.6c-.14.23-.185.53-.185.83 0 .323.046.6.162.83.115.23.277.415.486.577a2.4 2.4 0 00.74.323c.278.069.602.092.972.092s.741-.023 1.111-.092c.348-.07.787-.139.926-.185.116-.023.255-.07.255-.07.092-.022.092-.114.092-.114v-3.321c0-.738-.185-1.269-.578-1.615-.394-.322-.95-.507-1.667-.507-.277 0-.717.046-.972.092 0 0-.787.162-1.134.415 0 0-.07.047-.023.139l.255.692c.023.092.115.069.115.069s.023 0 .07-.023c.694-.37 1.597-.37 1.597-.37.393 0 .694.07.902.231.209.162.301.392.301.877v.161c-.37-.046-.648-.069-.648-.069zm-1.458 2.56c-.139-.116-.162-.139-.208-.208a.935.935 0 01-.116-.484c0-.323.116-.553.324-.715 0 0 .324-.277 1.065-.254.532 0 .995.093.995.093v1.66s-.463.092-.995.138c-.741.023-1.065-.23-1.065-.23z" fill="#fff"></path><path fill-rule="evenodd" clip-rule="evenodd" d="M46.545 17.988c.023-.092-.023-.115-.046-.138a2.52 2.52 0 00-.602-.093c-.463-.023-.717.046-.949.162a1.579 1.579 0 00-.625.461v-.438c0-.07-.046-.116-.115-.116h-.926c-.07 0-.116.047-.116.116v5.42c0 .069.046.115.116.115h.949c.07 0 .115-.047.115-.116v-2.744c0-.369.047-.738.116-.945.07-.231.185-.416.324-.531.139-.138.278-.23.44-.277a1.9 1.9 0 01.486-.069c.185 0 .393.046.393.046.07 0 .116-.046.14-.092.092-.184.277-.669.3-.761zM37.54 15.451a1.737 1.737 0 00-.37-.092 2.896 2.896 0 00-.486-.046c-.671 0-1.18.184-1.55.553-.37.37-.602.923-.741 1.66l-.047.255h-.833s-.092 0-.115.115l-.14.76c0 .07.024.116.116.116h.81l-.81 4.543c-.069.37-.138.67-.208.9-.07.23-.162.392-.255.507-.092.115-.185.208-.324.254-.115.046-.277.069-.44.069-.092 0-.207-.023-.3-.023-.093-.023-.139-.046-.208-.07 0 0-.093-.045-.14.07-.022.069-.254.669-.277.738-.023.069 0 .138.046.138.116.046.185.07.324.092.209.047.37.047.533.047.347 0 .648-.047.902-.139a1.67 1.67 0 00.672-.461 2.31 2.31 0 00.462-.807 8.31 8.31 0 00.324-1.222l.834-4.636h1.203s.093 0 .116-.115l.139-.761c0-.07-.023-.115-.116-.115h-1.157c0-.023.07-.439.185-.83a.964.964 0 01.255-.393.598.598 0 01.3-.184c.116-.046.255-.046.394-.046.116 0 .208.023.3.023.116.023.163.046.186.046.116.046.139 0 .162-.046l.278-.761c.07-.092 0-.116-.023-.139zM21.225 23.338c0 .07-.046.115-.116.115h-.972c-.07 0-.116-.046-.116-.115v-7.772c0-.069.047-.115.116-.115h.972c.07 0 .116.046.116.115v7.772z" fill="#fff"></path></svg>